<svg width="1378" height="234" viewBox="0 0 1378 234" fill="none" xmlns="http://www.w3.org/2000/svg">
<defs>
<linearGradient id="heroTextGradient" x1="0%" y1="50%" x2="100%" y2="50%">
<stop offset="0%" stop-color="#93C5FD"/>
<stop offset="48%" stop-color="#FFFFFF"/>
<stop offset="100%" stop-color="#C084FC"/>
</linearGradient>
<style>
path { fill: url(#heroTextGradient) !important; }
</style>
</defs>
<path d="M187.793 0C188.77 0 189.746 0.439453 190.723 1.31836C191.797 2.39258 192.334 3.56445 192.334 4.83398C192.334 6.39648 190.576 8.54492 187.061 11.2793C166.455 26.2207 136.719 56.3477 97.8516 101.66C89.1602 111.719 75.0977 130.078 55.6641 156.738C38.0859 180.469 23.877 202.783 13.0371 223.682C11.1816 227.197 9.96094 229.346 9.375 230.127C8.00781 232.08 6.34766 233.057 4.39453 233.057C1.46484 233.057 0 231.543 0 228.516C0 221.289 13.1348 198.926 39.4043 161.426C69.6777 118.164 100.146 80.8105 130.811 49.3652C150.244 29.248 166.162 14.502 178.564 5.12695C183.057 1.70898 186.133 0 187.793 0ZM372.51 131.396C366.357 141.846 360.059 153.613 353.613 166.699C348.438 177.441 345.85 184.18 345.85 186.914C345.85 190.137 347.754 191.748 351.562 191.748C352.734 191.748 356.396 191.357 362.549 190.576C366.846 190.088 370.605 189.844 373.828 189.844C377.441 189.844 379.248 191.162 379.248 193.799C379.248 195.85 377.979 197.266 375.439 198.047C374.463 198.34 367.822 199.17 355.518 200.537C347.607 201.416 337.842 203.662 326.221 207.275C315.186 210.693 306.934 214.014 301.465 217.236C300.098 218.018 298.975 218.408 298.096 218.408C294.775 218.408 293.115 217.285 293.115 215.039C293.115 212.695 294.336 210.84 296.777 209.473C302.441 206.348 309.863 203.125 319.043 199.805C326.27 183.008 331.934 170.459 336.035 162.158C340.039 154.248 345.996 143.164 353.906 128.906C345.41 100.684 339.014 73.6328 334.717 47.7539C329.541 49.3164 321.875 52.3437 311.719 56.8359C309.668 57.7148 308.105 58.1543 307.031 58.1543C304.785 58.1543 303.662 56.8848 303.662 54.3457C303.662 52.3926 304.883 50.7324 307.324 49.3652C324.902 39.8926 346.484 33.0566 372.07 28.8574C380.273 27.4902 385.303 27.0508 387.158 27.5391C389.404 28.125 390.527 29.4922 390.527 31.6406C390.527 34.2773 388.574 35.8398 384.668 36.3281C371.875 37.9883 363.379 39.6484 359.18 41.3086C355.664 42.6758 353.906 45.2637 353.906 49.0723C353.906 54.834 356.25 67.4316 360.938 86.8652C363.574 97.7051 366.699 108.691 370.312 119.824C375.781 114.551 390.088 101.953 413.232 82.0312C432.471 65.7227 447.51 53.3691 458.35 44.9707C455.908 45.5566 454.199 45.9473 453.223 46.1426C445.703 47.9004 437.451 50 428.467 52.4414C427.295 52.7344 426.123 52.8809 424.951 52.8809C422.51 52.8809 421.289 51.4648 421.289 48.6328C421.289 46.7773 422.51 45.3125 424.951 44.2383C429.736 42.2852 438.965 39.8438 452.637 36.9141C473.438 32.5195 491.357 30.3223 506.396 30.3223C510.498 30.3223 512.549 31.8359 512.549 34.8633C512.549 37.0117 511.523 38.3789 509.473 38.9648C508.496 39.2578 504.736 39.5996 498.193 39.9902C489.209 40.5762 483.301 41.3574 480.469 42.334C476.562 43.5059 471.68 46.4844 465.82 51.2695C462.012 54.3945 458.154 57.4707 454.248 60.498C420.361 87.4512 393.115 111.084 372.51 131.396ZM491.602 106.494C503.711 103.076 513.965 101.367 522.363 101.367C529.98 101.367 535.889 102.734 540.088 105.469C544.873 108.594 547.266 113.232 547.266 119.385C547.266 124.268 544.971 130.957 540.381 139.453C539.014 141.895 535.156 148.389 528.809 158.936C517.676 177.393 512.109 187.354 512.109 188.818C512.109 191.162 513.33 192.334 515.771 192.334C516.748 192.334 520.117 191.504 525.879 189.844C530.859 188.477 534.18 187.793 535.84 187.793C538.672 187.793 540.088 189.062 540.088 191.602C540.088 193.75 538.574 195.166 535.547 195.85C524.023 198.486 511.377 203.027 497.607 209.473C495.068 210.645 493.115 211.23 491.748 211.23C488.33 211.23 486.621 209.229 486.621 205.225C486.621 202.295 489.258 195.898 494.531 186.035C476.758 195.215 462.354 199.805 451.318 199.805C445.264 199.805 440.576 198.193 437.256 194.971C433.838 191.748 432.129 187.646 432.129 182.666C432.129 173.193 437.256 164.551 447.51 156.738C464.795 143.555 490.332 136.23 524.121 134.766C527.148 129.688 528.662 125.391 528.662 121.875C528.662 118.066 527.002 115.186 523.682 113.232C520.85 111.475 517.188 110.596 512.695 110.596C503.711 110.596 493.799 112.5 482.959 116.309C479.834 120.312 477.441 123.682 475.781 126.416C474.219 128.955 472.363 130.225 470.215 130.225C468.457 130.225 467.578 129.102 467.578 126.855C467.578 123.047 474.023 114.014 486.914 99.7559C494.238 91.748 501.416 85.3516 508.447 80.5664C510.01 79.4922 511.279 78.9551 512.256 78.9551C514.502 78.9551 515.625 80.0293 515.625 82.1777C515.625 83.4473 515.039 84.7168 513.867 85.9863C513.574 86.1816 510.205 89.0137 503.76 94.4824C502.002 96.0449 497.949 100.049 491.602 106.494ZM498.633 177.979L500.098 175.635L509.619 160.107C516.064 149.365 519.727 143.262 520.605 141.797C505.762 142.578 492.285 145.264 480.176 149.854C469.531 153.955 461.572 158.594 456.299 163.77C451.904 168.066 449.707 172.314 449.707 176.514C449.707 180.42 451.514 183.496 455.127 185.742C457.471 187.109 460.107 187.793 463.037 187.793C471.045 187.793 482.91 184.521 498.633 177.979ZM560.303 192.48C570.166 171.582 582.812 149.17 598.242 125.244C599.023 123.975 599.414 122.852 599.414 121.875C599.414 119.824 598.389 118.799 596.338 118.799C594.873 118.799 589.844 120.215 581.25 123.047C575.781 124.805 572.656 125.684 571.875 125.684C569.727 125.684 568.652 124.365 568.652 121.729C568.652 120.166 569.678 118.848 571.729 117.773C574.854 116.113 583.301 113.281 597.07 109.277C607.129 106.348 613.818 104.883 617.139 104.883C621.436 104.883 623.584 106.592 623.584 110.01C623.584 111.377 623.145 112.842 622.266 114.404C618.848 120.752 616.504 125.244 615.234 127.881C628.906 116.162 641.797 110.303 653.906 110.303C661.328 110.303 666.797 112.5 670.312 116.895C673.047 120.215 674.414 124.17 674.414 128.76C674.414 134.033 672.656 140.869 669.141 149.268C668.262 151.318 665.137 157.812 659.766 168.75C656.738 175.098 655.225 179.248 655.225 181.201C655.225 183.74 656.396 185.205 658.74 185.596C659.521 185.791 663.77 185.547 671.484 184.863C675.293 184.473 678.32 184.277 680.566 184.277C683.984 184.277 685.693 185.596 685.693 188.232C685.693 190.674 684.18 191.992 681.152 192.188C667.285 193.457 657.275 194.873 651.123 196.436C641.65 198.779 628.711 203.613 612.305 210.938C610.059 211.914 608.35 212.402 607.178 212.402C604.932 212.402 603.809 211.23 603.809 208.887C603.809 206.641 605.273 204.785 608.203 203.32C614.062 200.488 620.947 197.51 628.857 194.385C631.201 190.479 636.084 181.445 643.506 167.285C652.295 150.391 656.689 138.965 656.689 133.008C656.689 129.59 655.615 126.904 653.467 124.951C651.221 122.9 648.438 121.875 645.117 121.875C635.742 121.875 625.293 127.1 613.77 137.549C602.441 147.9 593.555 160.205 587.109 174.463C584.668 179.736 583.447 183.057 583.447 184.424C583.447 187.158 585.352 188.525 589.16 188.525L599.561 188.379C606.006 188.379 609.814 188.574 610.986 188.965C612.646 189.551 613.477 190.723 613.477 192.48C613.477 195.41 611.426 196.875 607.324 196.875C596.387 196.777 587.402 197.168 580.371 198.047C572.656 199.023 565.332 200.439 558.398 202.295C551.27 204.834 543.848 207.178 536.133 209.326C534.961 209.717 533.887 209.912 532.91 209.912C530.566 209.912 529.395 208.74 529.395 206.396C529.395 204.248 530.762 202.588 533.496 201.416C540.625 198.193 549.561 195.215 560.303 192.48ZM785.742 50.2441C780.859 56.4941 775.195 66.1133 768.75 79.1016C767.285 81.9336 765.674 83.3496 763.916 83.3496C761.279 83.3496 759.961 82.0801 759.961 79.541C759.961 74.8535 765.918 63.623 777.832 45.8496C791.602 25.4395 800.83 15.2344 805.518 15.2344C807.764 15.2344 808.887 16.4062 808.887 18.75C808.887 20.2148 807.861 22.0215 805.811 24.1699C800.049 30.127 797.168 34.0332 797.168 35.8887C797.168 37.2559 797.998 37.9395 799.658 37.9395C800.342 37.9395 808.984 36.8164 825.586 34.5703C847.461 31.6406 870.654 30.1758 895.166 30.1758C902.783 30.1758 907.91 30.4688 910.547 31.0547C914.355 31.9336 916.26 34.1309 916.26 37.6465C916.26 40.6738 913.428 43.9453 907.764 47.4609C872.998 69.3359 845.166 87.8418 824.268 102.979C789.307 128.467 761.719 151.416 741.504 171.826C732.91 180.518 728.613 186.035 728.613 188.379C728.613 190.527 729.736 191.602 731.982 191.602C732.764 191.602 734.131 191.406 736.084 191.016C770.557 183.496 801.758 179.59 829.688 179.297C843.066 161.523 851.221 152.637 854.15 152.637C857.08 152.637 858.545 153.857 858.545 156.299C858.545 157.861 857.568 159.668 855.615 161.719C841.65 176.758 829.15 195.654 818.115 218.408C816.455 221.631 814.551 223.242 812.402 223.242C810.059 223.242 808.887 221.924 808.887 219.287C808.887 217.627 811.816 210.889 817.676 199.072C819.434 195.654 820.312 193.408 820.312 192.334C820.312 190.576 819.141 189.6 816.797 189.404C812.793 189.209 804.932 189.697 793.213 190.869C759.912 194.287 729.248 200.879 701.221 210.645C697.9 211.816 695.654 212.402 694.482 212.402C691.65 212.402 690.234 211.035 690.234 208.301C690.234 203.223 700.732 189.746 721.729 167.871C740.771 148.047 767.139 125.391 800.83 99.9023C826.416 80.6641 849.17 64.9902 869.092 52.8809C876.221 48.584 880.42 45.9961 881.689 45.1172C882.471 44.6289 883.008 44.2871 883.301 44.0918C884.766 43.2129 885.498 42.2363 885.498 41.1621C885.498 39.7949 883.984 39.1113 880.957 39.1113C864.844 39.1113 844.141 40.918 818.848 44.5312C804.395 46.4844 793.359 48.3887 785.742 50.2441ZM962.402 144.58C945.801 144.971 922.607 147.51 892.822 152.197L888.135 152.93C884.717 159.57 883.008 165.771 883.008 171.533C883.008 177.979 885.596 182.715 890.771 185.742C894.092 187.695 898.096 188.672 902.783 188.672C909.521 188.672 920.166 186.23 934.717 181.348C940.576 172.949 945.264 166.65 948.779 162.451C952.393 158.057 955.078 155.859 956.836 155.859C959.18 155.859 960.352 157.031 960.352 159.375C960.352 160.645 959.766 162.061 958.594 163.623C958.398 163.916 956.299 166.504 952.295 171.387C944.678 180.469 935.596 195.898 925.049 217.676C923.682 220.703 922.266 222.217 920.801 222.217C917.969 222.217 916.553 221.191 916.553 219.141C916.553 216.406 919.873 208.691 926.514 195.996C927.197 194.629 927.539 193.652 927.539 193.066C927.539 192.09 927.002 191.602 925.928 191.602C925.537 191.602 924.512 191.846 922.852 192.334C908.203 197.314 897.363 199.805 890.332 199.805C882.617 199.805 876.416 197.363 871.729 192.48C867.139 187.793 864.844 182.227 864.844 175.781C864.844 162.402 870.361 149.365 881.396 136.67C889.697 127.1 899.951 119.336 912.158 113.379C923.584 107.812 934.619 105.029 945.264 105.029C950.928 105.029 955.762 106.543 959.766 109.57C964.844 113.477 967.383 118.506 967.383 124.658C967.383 130.225 965.723 136.865 962.402 144.58ZM947.607 136.963C950.732 131.006 952.295 126.27 952.295 122.754C952.295 119.238 950.977 116.553 948.34 114.697C946.289 113.232 943.701 112.5 940.576 112.5C933.545 112.5 926.025 115.088 918.018 120.264C908.545 126.416 901.807 132.812 897.803 139.453C897.314 140.332 897.07 140.967 897.07 141.357C897.07 142.432 897.754 143.018 899.121 143.115C900.195 143.115 908.057 142.041 922.705 139.893C929.541 138.916 937.842 137.939 947.607 136.963ZM1097.02 41.4551C1084.62 57.1777 1072.36 74.3164 1060.25 92.8711C1055.57 100.098 1053.22 104.346 1053.22 105.615C1053.22 107.178 1054.15 107.959 1056.01 107.959C1057.18 107.959 1066.7 106.836 1084.57 104.59C1110.35 101.758 1126.76 100.391 1133.79 100.488C1140.53 90.2344 1149.37 77.5879 1160.3 62.5488C1161.67 60.6934 1162.35 59.2285 1162.35 58.1543C1162.35 56.3965 1161.43 55.5176 1159.57 55.5176C1158.11 55.5176 1151.95 57.6172 1141.11 61.8164C1139.06 62.5977 1137.55 62.9883 1136.57 62.9883C1134.03 62.9883 1132.76 62.1094 1132.76 60.3516C1132.76 57.7148 1134.18 55.7129 1137.01 54.3457C1150.39 47.5098 1166.16 41.9434 1184.33 37.6465C1199.17 34.1309 1210.55 32.373 1218.46 32.373C1222.56 32.373 1224.61 33.7891 1224.61 36.6211C1224.61 38.9648 1222.61 40.3809 1218.6 40.8691C1209.13 41.9434 1200.98 43.2617 1194.14 44.8242C1186.33 54.1016 1175 69.8242 1160.16 91.9922C1137.89 125.098 1121.73 152.783 1111.67 175.049C1108.74 181.494 1107.28 185.645 1107.28 187.5C1107.28 190.332 1109.08 191.748 1112.7 191.748C1113.96 191.748 1117.87 191.357 1124.41 190.576C1128.81 190.088 1132.81 189.844 1136.43 189.844C1139.75 189.844 1141.41 191.211 1141.41 193.945C1141.41 196.582 1139.16 198.145 1134.67 198.633C1105.76 201.855 1081.74 207.861 1062.6 216.65C1060.55 217.529 1059.08 217.969 1058.2 217.969C1056.64 217.969 1055.52 217.334 1054.83 216.064C1054.44 215.186 1054.44 214.209 1054.83 213.135C1056.3 209.521 1065.14 204.932 1081.35 199.365C1085.94 184.326 1096.29 163.086 1112.4 135.645C1118.85 124.707 1122.31 118.799 1122.8 117.92C1123.49 116.455 1123.83 115.088 1123.83 113.818C1123.83 111.67 1122.36 110.596 1119.43 110.596C1114.36 110.596 1101.46 111.67 1080.76 113.818C1067.48 115.283 1055.22 116.846 1043.99 118.506C1034.23 133.252 1025.2 149.463 1016.89 167.139C1013.18 175.146 1011.33 180.371 1011.33 182.812C1011.33 185.938 1013.09 187.5 1016.6 187.5C1017.77 187.5 1021.92 187.109 1029.05 186.328C1033.25 185.84 1037.06 185.596 1040.48 185.596C1044.58 185.596 1046.63 186.963 1046.63 189.697C1046.63 192.139 1044.38 193.604 1039.89 194.092C1023.19 196.045 1010.69 198.047 1002.39 200.098C993.506 202.441 981.738 206.689 967.09 212.842C965.137 213.721 963.623 214.16 962.549 214.16C960.205 214.16 959.033 213.086 959.033 210.938C959.033 208.789 960.059 207.08 962.109 205.811C966.113 203.369 973.975 199.756 985.693 194.971C990.771 179.541 1000.05 160.059 1013.53 136.523C1022.61 120.801 1039.4 94.7266 1063.92 58.3008C1065.19 56.3477 1065.82 54.8828 1065.82 53.9062C1065.82 52.3437 1064.7 51.5625 1062.45 51.5625C1061.08 51.5625 1057.67 52.832 1052.2 55.3711C1047.22 57.6172 1044.04 58.7402 1042.68 58.7402C1040.14 58.7402 1039.06 57.5195 1039.45 55.0781C1039.75 53.0273 1041.11 51.3672 1043.55 50.0977C1054.39 44.3359 1066.94 39.4531 1081.2 35.4492C1099.07 30.4688 1112.74 27.9785 1122.22 27.9785C1126.22 27.9785 1128.22 29.3945 1128.22 32.2266C1128.22 34.7656 1126.17 36.2305 1122.07 36.6211C1112.99 37.4023 1104.64 39.0137 1097.02 41.4551ZM1218.46 106.494C1230.57 103.076 1240.82 101.367 1249.22 101.367C1256.84 101.367 1262.74 102.734 1266.94 105.469C1271.73 108.594 1274.12 113.232 1274.12 119.385C1274.12 124.268 1271.83 130.957 1267.24 139.453C1265.87 141.895 1262.01 148.389 1255.66 158.936C1244.53 177.393 1238.96 187.354 1238.96 188.818C1238.96 191.162 1240.19 192.334 1242.63 192.334C1243.6 192.334 1246.97 191.504 1252.73 189.844C1257.71 188.477 1261.04 187.793 1262.7 187.793C1265.53 187.793 1266.94 189.062 1266.94 191.602C1266.94 193.75 1265.43 195.166 1262.4 195.85C1250.88 198.486 1238.23 203.027 1224.46 209.473C1221.92 210.645 1219.97 211.23 1218.6 211.23C1215.19 211.23 1213.48 209.229 1213.48 205.225C1213.48 202.295 1216.11 195.898 1221.39 186.035C1203.61 195.215 1189.21 199.805 1178.17 199.805C1172.12 199.805 1167.43 198.193 1164.11 194.971C1160.69 191.748 1158.98 187.646 1158.98 182.666C1158.98 173.193 1164.11 164.551 1174.37 156.738C1191.65 143.555 1217.19 136.23 1250.98 134.766C1254 129.688 1255.52 125.391 1255.52 121.875C1255.52 118.066 1253.86 115.186 1250.54 113.232C1247.71 111.475 1244.04 110.596 1239.55 110.596C1230.57 110.596 1220.65 112.5 1209.81 116.309C1206.69 120.312 1204.3 123.682 1202.64 126.416C1201.07 128.955 1199.22 130.225 1197.07 130.225C1195.31 130.225 1194.43 129.102 1194.43 126.855C1194.43 123.047 1200.88 114.014 1213.77 99.7559C1221.09 91.748 1228.27 85.3516 1235.3 80.5664C1236.87 79.4922 1238.13 78.9551 1239.11 78.9551C1241.36 78.9551 1242.48 80.0293 1242.48 82.1777C1242.48 83.4473 1241.89 84.7168 1240.72 85.9863C1240.43 86.1816 1237.06 89.0137 1230.62 94.4824C1228.86 96.0449 1224.8 100.049 1218.46 106.494ZM1225.49 177.979L1226.95 175.635L1236.47 160.107C1242.92 149.365 1246.58 143.262 1247.46 141.797C1232.62 142.578 1219.14 145.264 1207.03 149.854C1196.39 153.955 1188.43 158.594 1183.15 163.77C1178.76 168.066 1176.56 172.314 1176.56 176.514C1176.56 180.42 1178.37 183.496 1181.98 185.742C1184.33 187.109 1186.96 187.793 1189.89 187.793C1197.9 187.793 1209.77 184.521 1225.49 177.979ZM1349.56 107.227H1350C1355.18 105.176 1359.33 104.15 1362.45 104.15C1367.43 104.15 1371.29 105.664 1374.02 108.691C1376.56 111.523 1377.83 115.332 1377.83 120.117C1377.83 128.32 1374.71 137.793 1368.46 148.535C1357.91 166.504 1344.24 180.713 1327.44 191.162C1317.19 197.51 1307.76 200.684 1299.17 200.684C1293.8 200.684 1289.26 198.877 1285.55 195.264C1281.35 191.26 1279.25 185.84 1279.25 179.004C1279.25 164.355 1287.26 148.535 1303.27 131.543C1315.87 118.164 1327.44 109.57 1337.99 105.762C1340.43 104.883 1342.53 104.443 1344.29 104.443C1347.12 104.443 1348.88 105.371 1349.56 107.227ZM1334.62 114.551C1328.56 118.066 1321.88 123.779 1314.55 131.689C1302.05 145.264 1295.8 157.812 1295.8 169.336C1295.8 174.316 1297.22 178.32 1300.05 181.348C1303.08 184.57 1307.13 186.182 1312.21 186.182C1321.58 186.182 1332.03 180.322 1343.55 168.604C1350.68 161.475 1356.05 153.857 1359.67 145.752C1362.21 139.99 1363.48 134.863 1363.48 130.371C1363.48 125.977 1362.16 122.363 1359.52 119.531C1357.18 117.188 1354.3 116.016 1350.88 116.016C1349.02 116.016 1346.29 116.748 1342.68 118.213C1341.02 118.896 1339.65 119.238 1338.57 119.238C1335.94 119.238 1334.62 117.676 1334.62 114.551Z" fill="white"/>
</svg>
